/* XPM */
static const char *stone_64[] = {
/* columns rows colors chars-per-pixel */
"64 64 256 2 ",
"   c black",
".  c #010101",
"X  c #020202",
"o  c gray1",
"O  c #040404",
"+  c gray2",
"@  c #060606",
"#  c #070707",
"$  c gray3",
"%  c #090909",
"&  c gray4",
"*  c #0B0B0B",
"=  c #0C0C0C",
"-  c gray5",
";  c #0E0E0E",
":  c gray6",
">  c #101010",
",  c #111111",
"<  c gray7",
"1  c #131313",
"2  c gray8",
"3  c #151515",
"4  c #161616",
"5  c gray9",
"6  c #181818",
"7  c #191919",
"8  c gray10",
"9  c #1B1B1B",
"0  c gray11",
"q  c #1D1D1D",
"w  c #1E1E1E",
"e  c gray12",
"r  c #202020",
"t  c gray13",
"y  c #222222",
"u  c #232323",
"i  c gray14",
"p  c #252525",
"a  c gray15",
"s  c #272727",
"d  c #282828",
"f  c gray16",
"g  c #2A2A2A",
"h  c gray17",
"j  c #2C2C2C",
"k  c #2D2D2D",
"l  c gray18",
"z  c #2F2F2F",
"x  c gray19",
"c  c #313131",
"v  c #323232",
"b  c gray20",
"n  c #343434",
"m  c #353535",
"M  c gray21",
"N  c #373737",
"B  c gray22",
"V  c #393939",
"C  c #3A3A3A",
"Z  c gray23",
"A  c #3C3C3C",
"S  c gray24",
"D  c #3E3E3E",
"F  c #3F3F3F",
"G  c gray25",
"H  c #414141",
"J  c gray26",
"K  c #434343",
"L  c #444444",
"P  c gray27",
"I  c #464646",
"U  c gray28",
"Y  c #484848",
"T  c #494949",
"R  c gray29",
"E  c #4B4B4B",
"W  c #4C4C4C",
"Q  c gray30",
"!  c #4E4E4E",
"~  c gray31",
"^  c #505050",
"/  c #515151",
"(  c gray32",
")  c #535353",
"_  c gray33",
"`  c #555555",
"'  c #565656",
"]  c gray34",
"[  c #585858",
"{  c gray35",
"}  c #5A5A5A",
"|  c #5B5B5B",
" . c gray36",
".. c #5D5D5D",
"X. c gray37",
"o. c #5F5F5F",
"O. c #606060",
"+. c gray38",
"@. c #626262",
"#. c gray39",
"$. c #646464",
"%. c #656565",
"&. c gray40",
"*. c #676767",
"=. c #686868",
"-. c DimGray",
";. c #6A6A6A",
":. c gray42",
">. c #6C6C6C",
",. c #6D6D6D",
"<. c gray43",
"1. c #6F6F6F",
"2. c gray44",
"3. c #717171",
"4. c #727272",
"5. c gray45",
"6. c #747474",
"7. c gray46",
"8. c #767676",
"9. c #777777",
"0. c gray47",
"q. c #797979",
"w. c gray48",
"e. c #7B7B7B",
"r. c #7C7C7C",
"t. c gray49",
"y. c #7E7E7E",
"u. c gray50",
"i. c #808080",
"p. c #818181",
"a. c gray51",
"s. c #838383",
"d. c #848484",
"f. c gray52",
"g. c #868686",
"h. c gray53",
"j. c #888888",
"k. c #898989",
"l. c gray54",
"z. c #8B8B8B",
"x. c gray55",
"c. c #8D8D8D",
"v. c #8E8E8E",
"b. c gray56",
"n. c #909090",
"m. c gray57",
"M. c #929292",
"N. c #939393",
"B. c gray58",
"V. c #959595",
"C. c gray59",
"Z. c #979797",
"A. c #989898",
"S. c gray60",
"D. c #9A9A9A",
"F. c #9B9B9B",
"G. c gray61",
"H. c #9D9D9D",
"J. c gray62",
"K. c #9F9F9F",
"L. c #A0A0A0",
"P. c gray63",
"I. c #A2A2A2",
"U. c gray64",
"Y. c #A4A4A4",
"T. c #A5A5A5",
"R. c gray65",
"E. c #A7A7A7",
"W. c gray66",
"Q. c #A9A9A9",
"!. c #AAAAAA",
"~. c gray67",
"^. c #ACACAC",
"/. c gray68",
"(. c #AEAEAE",
"). c #AFAFAF",
"_. c gray69",
"`. c #B1B1B1",
"'. c #B2B2B2",
"]. c gray70",
"[. c #B4B4B4",
"{. c gray71",
"}. c #B6B6B6",
"|. c #B7B7B7",
" X c gray72",
".X c #B9B9B9",
"XX c gray73",
"oX c #BBBBBB",
"OX c #BCBCBC",
"+X c gray74",
"@X c gray",
"#X c gray75",
"$X c #C0C0C0",
"%X c #C1C1C1",
"&X c gray76",
"*X c #C3C3C3",
"=X c gray77",
"-X c #C5C5C5",
";X c #C6C6C6",
":X c gray78",
">X c #C8C8C8",
",X c gray79",
"<X c #CACACA",
"1X c #CBCBCB",
"2X c gray80",
"3X c #CDCDCD",
"4X c #CECECE",
"5X c gray81",
"6X c #D0D0D0",
"7X c gray82",
"8X c #D2D2D2",
"9X c LightGray",
"0X c gray83",
"qX c #D5D5D5",
"wX c gray84",
"eX c #D7D7D7",
"rX c #D8D8D8",
"tX c gray85",
"yX c #DADADA",
"uX c gray86",
"iX c gainsboro",
"pX c #DDDDDD",
"aX c gray87",
"sX c #DFDFDF",
"dX c gray88",
"fX c #E1E1E1",
"gX c #E2E2E2",
"hX c gray89",
"jX c #E4E4E4",
"kX c gray90",
"lX c #E6E6E6",
"zX c #E7E7E7",
"xX c gray91",
"cX c #E9E9E9",
"vX c #EAEAEA",
"bX c gray92",
"nX c #ECECEC",
"mX c gray93",
"MX c #EEEEEE",
"NX c #EFEFEF",
"BX c gray94",
"VX c #F1F1F1",
"CX c gray95",
"ZX c #F3F3F3",
"AX c #F4F4F4",
"SX c gray96",
"DX c #F6F6F6",
"FX c gray97",
"GX c #F8F8F8",
"HX c #F9F9F9",
"JX c gray98",
"KX c #FBFBFB",
"LX c gray99",
"PX c #FDFDFD",
"IX c #FEFEFE",
"UX c white",
/* pixels */
"&X].]._.'.`.`.~.(.).`.(.^.!.(.%.E.(.^.^.Q._.'._.}.].{.+XV.eXpX'.$X|.`.D.`.(._.E.!.Y.!.Q.L.T.R.~.$X[.'./.).'.Q.^.~.!.E.E.W.T.W.l.",
"}.DXIXAXUXPXIXUXIXPXIXLXKXGXGXz.@XZXPXPXLXUXIXIX>XUXPXIXUXIXKXR.%XPXUXJXJXKXGXFXJXHXFXJXKXHXKX].oXPXIXPXPXIXIXNXGX8XIXIXIXnXUXV.",
"'.IXIXJXtXHXPXIX6XHXSXPXKXLXSXH.{.KXFXAXIXIXk.KXHXIXIXIXFXKXJXY.OXPXIXLXKXCXGXKXPXLXHXHXDXvXNX].oXLXPXIXUXKXIXKXDXIXUXHXIXLXPXT.",
"`.IXIXHX+XIXUXIXLXLXIXZXPXIXKXU.`.KXLXCXlXIXIXIXUXzXIXUXNXLXZXZ.@XJXLXPXUXUXKXPXPXJXFXFXGXLXGX+XoXIXLXSXPXFXIXGXUXKXGXLXPXJXGXL.",
"_.PXPXPXIXPXPXIXMXPXFXJXNX{.KX_._.GXLXPXLXIXIXPXPXIXGXBXFXPXDXP.oXFXDXKXIXJXJXIXPXCXSXLXPXLXKX|.+XIXLXLXPXPXJXIXKXMXAXDXAXCXLX/.",
"`.IXLX8XPXPXFXUXUXUXIXKXcXLXnX^.W.PXPXIXLXPXUXIXnXPXDXLXLXLXmX[.@XLXFXGX].DXHXSXKXCXGXGXUXPXvXXX@XLXPXIXPXHXDXIXPXIXGXDXLXJXIX!.",
"Q.LXGXLXsXPXPXUXLXLXIXIXPXJXaX|.Y.LXJXFXPXIXIXIXAXUXFXNXKXFXSX(. XGXLXFXnXKXPXHXUXIXJXPXNXPX0X@X.XLXGXPXCXPXPXPXUXIXFXUXLXLXA.T.",
"~.FXHXLXJXLXPXIXIXIXPXHXLXKXPX'.L.KX<XPXIXPXIXVXJXIXIXJXFXKXGX_.oXLXKXGXGXgXIXJXGXPXZXKXUXKXkX X+XLX[.IXPXPXLXIXLXLXGXJXPXvXLXK.",
"Q.UXLXKXLXUXPXBXbXdXIXPXIXwXKXP.T.UXSXLXLXPXUXLXPXPXLXLXVXPXLX). XLXGXLXUXFXPXJXKXCXKXHXPXPXHX%X_.UXPXUXPXIXIXIXPXJXLXKXKXDXIXJ.",
"U.>XLXUXPXPXHXUXUXPXUXGXSXPXLXoXU.PXLXIXPXPXIXPXiXPXFXFXKXGXLXW..XLXLXGXGXAXFXUXJXHXHXDXHXPXIX~.oXPXPX#XPXKXLXPXPXJXUXPXIXmXUXT.",
"I.yXUXGXIXIXVXIXPXPXSXtXsXMXIX}.I.LXvXLXPXPXUXZXLXIXUXLXPXPXPX{._.LXIXKXSXAXLXGXLXLXGXLXUXLXLX`.XXUXIXJXPXPXLXLXlXKXIXVXPXvXKXJ.",
"R.UXIXIXIXOXLXIXIXPXJXLXJXIXPX~.I.IXmXIXPXIXKXvXIXPXPXIXUXLXLX(.[.LXIXIXHXFXLX#XJXPXJXDXPXPXLX].|.bXJXHXLXLXLXPXPXUXJXLXLXKXPXS.",
"_.LX3 x.PXUXIXbXUXIXkXCXUXFXUX~.T.IXIXKXPXHXIXUXCXFXUXIXCXHXPX).^.JXVXPXLXBXDXJXJXf.FXJXmXSXLXT.|.IXJXPXJXIXKXSXLXFXPXKXZXIXHXN.",
"[.IXBXPXIXLXIXE.FXZXAXIXIXHXUXL.W.LXIXGXIXLXLXKX=XIXIXFXJXPXIX'.{.JXPXGXKXUXFXPXJXUXLXLX9XNXKX~.'.IXLX].IXPXIXKXKXPXJXHXPXBXCXU.",
"@XuXaXgXlXjXsXbXCXBXCXcXZXCXCX]._.fXpXaXgXaXdXaXfXlXlXiX2XxXbX.X|.tXwXeXsXfXhXbXvXnXBXBXZXbXNXXX_.fXqXG.uXaXjXhXbXnXxXzXZXAXZX{.",
">X3X4X;X4X7X3X4X8X:X9X4X2X>X8XY.{.%XI.#X:X4X$XXX*X*X&X|.@X%X*X].A.(.).{.,X-X1X=X@X&X[.&X#X;X XoX(. X*X=X1X1X,X1X=X<X2X3X6X2X>X5X",
"~.Q.Q.^.`.: ~.|.'.^.`./.Y.!.^._.].).).^.|.( @X`./.!.^.I.R.I.R.(.'.].^. XOX/ ].[.|./._.^./._./.~.)./.).^.!.R _.).}._.(.`./.(.Q._.",
"PXJXHXPX5X[ bXJXIXl.MXFXLXKXFXIXKXPXSXUXG.V.,XPX@XJXUXPXBXvXPXGXkXLXDXIXQ.G 7XHXPXIXIXZXIXLXJXPXPXMXKXKXJXc.GXPXHXUXUXKXoX8XJXPX",
"DXUXIXPXuXY LXUXPXLXKXBXIXBXIXAXJXLXIXCXOXN.=XHXLXJXIXCXPXKXLXBXpXKXbXPXK.| qXKXKXKXHXPXGXFXFXJXPXKXJXPXLXA.UXPXPXKXPXPXHXSXPXHX",
"hXIXPXLXoX! IXFXPXPXLXHXJXvXPXLXPXKXAXPXXXy.#XZXKXPXIXUXUXIX XPXPXLXIXFXP.^ UXSXJXLXIXIXPXIXLXPXGXKXKXPXFXJ.UXIXUXLXUXPXNXCXJXUX",
"gXIXtXHX.XZ yXLXHXGXGXKXKXIXLXIXwXHXPXIX6Xu.OXHXBXIXSXLXJXPXKXKXIXPXJXIX`.Y 4XSXHXHXLXPXGXKXLX7XLXKXUXPXmXU.UXPXPXUXLXUXLXSXPXJX",
"UXmXLXIXaXF GXKXLXbXDXJXPXGXPXHXcXFXAXGXdXn.XXLXGXKXUXKXKXLXJXHXUXMXUXLXx.+.rXJXGXHXHXKXUXLXPXPXLXLXJXIXnXC.UXKXPXHXSXHXFXLXPXBX",
"JXNXMXxX2X) DXJXPXKXLXJXLXPXJXJXJXIXDXIXkXN.}.LXIXHXPXVXHXHXKXLXKXLXUXmXS.3.UXNXPXOXHXKXxXLXPXSXHXLXGXJXcXv.KXIXFXSXKX8XLXJXbXKX",
"DXFXFXLXfX' SXJXFXIXLXKXgXJXLXIXIXNXJXUXBXK..XPXFXPXJXPXPXPXLXHXSXLXLXKXJ.@.AXIXLXHXSXLXKXKXJXKXLXHXIXIXVXl.PXFXDXBXKXJXAXVXHXJX",
"SXVXKXKX1XQ HXJXIXKXLXJXPXnXKXFXFXIXKXUX4Xc.|.PXPXPXLXHXPXLXIXIXKXFXHXUX}.[ zXPXJXJXLXAXGXLXSXPXHXFXKXKXmXV.IXIXPXLXJXIXkXJXJXHX",
"LXJXSXPX2X| SXLXJXKXKXGXUXLXAXLXLXLXSXSX7Xj..XJXGXKXHXJXIXLX7Xf.VX@XGXUX~.4.UXPXJXLXIXIXLXFXDXPXJXJXJXFXJXl.LXLXPXIXKXKXIXLXGXAX",
"LXJXXXGX4X-.GXvXGXLXIXJXUXJXKXLXHXIXJXHXIXj..XLXLXUXUXIXHXPXKXGXPXIXcXIXF...XXPXHXKXHXAXLXKXBXBXLXJXHXuXMXh.PXPXPXLXGXLXGXLXDXLX",
"IXPXLXSXaXo.FXPXFXLXGX+XPXGX5XVXGXIXLXLX&XH.9XPXHXKXPXLXKXPXqXKXLXHXZXNX%X^ =XJXGX0XDXHXKXKXxXLXvXIXZXSXJXq.HXHXIXDXSXPXHXJXJXSX",
"FXJXHXLX.X<.zXIXDXIXHXHXPXbXPXVXlXUXPXAXA./.;XKXHXUXSXJXPXKXKX,XKXJXHXIXI.g PXVXLXLXKXkXDXKXFXPXDXCXKXUXCX;.KXAXPXKXPXPXHXbXGXHX",
"DXPXKXIXU.>.JXKXKXDXLXJXHXBXZXKXJXPXJXJXS.'.T.JXUXLXKXGXJXGXIXIXIXE.LXCXC.} eXIXKXKXzXHXJXIXJXSXDXIXKXGXzX#.cXUXFXJXIXLXPXJXAX/.",
"MXmXcXmX(.r.iXyXyX9XwXpXrXc.7XVXMXvXnXbX!.@.lXsXkXfXdXaXfXhXhXMXZXBXMXBX).X.0X7X3X7X6XqX7XpX6XzXnXcXjXNXhX^ eX9XwXqXuX9XpXjXgXgX",
"#X`.I.|.).f./.R.E.D.).Q.!.(.[.:X>X$X&X=X;XO.3XM.'.OX+X;X&X-X6XwX&X0X+XD.J.E H W o.3.p.v.D.K.}.+X X|.}.}.}.1.Z.K.R.!.U.!.!.(.].#X",
" XXXoX=X X{.1XH.>X>X-X5X0XpXjXk.{.G.[.`.(.(.).[.'.].P.{.{.1XXXr.~._.[.#X(.rX#X&X=X<X3XyXdXxXJ.v. X[.XX%XXX%X].&X,X6XqXaXhXjXR.f.",
"3XPXSXIXPXHXUXdXIXIXIXPXUXPXPXE.=XIXJXHX-XpXGXVXUXqXPXSXPXHX^...fXLXPXlXLXIXIXLXIXIXGXCXIXPXb.Y.GXJXPXUXUXLXPXUXUXIXKXIXLXIXwXn ",
"qXLXIXIXPXPXUXKXZXCXLXLXLXPXaX(.;XVXUXHXKXDXJXIXIXUXLXPXKXIXOX1 zXSXPXKXKXIXPXPXLXUXPXIXJXPX~.L.LXPXUXlXtXJXJXUXKXUXUXPXLXSXmXB.",
"NXPXPXLXHXLXIXLXPX9XHXPXIXIXZX_.&XLXLXPXKXUXV.UXIXIXLXBXPXiX|.(.JXPXIXPXIXKXIX_.UXPXKXLXfXKX{.W.PXPXPXIXIXaXLXGXUXV.PXPXLXIXDXT ",
"sXLXPXjXHXIXUXLXLXDXFXIXPXUXJX`.+XKXKXPXHXXXLXJXUXPX5XdXHXHX|.).JXPXPXKXUXPXIXPXPXnXIXDXHXJX_.R.KXIXzXUXLXHXUXLXUXLXPXVXLXIXDXm ",
",XLXLXIXJXKXLXLXKXKXKXIXDXIXPX'..XPXKXUXPXgX~.KXLXuXHXDXHXIX&XB.UXKXIXIXIXKXDXJXUXCXKXUXAXIX).U.KXIXPXIXLXIXKXFXmXKXUXIXIXPXSX~ ",
"GXPXPXCXSXGXKXJXJXCXFX,XPXKXZXK..XKXJXMXKXPXIXhXHX0XxXJXPXHX Xl.UXUXKXIXKXIXHXUXDXUXGXhXPXUXE.E.HXPXIXUXjXIX.Xf.LXPXDXUXIXLXBXU ",
"UXnXLXGXLXIXJXLXFXjXPXjXHXIXZXU.~.IXIXPXIX/.PXUXUXPXLXAXxXLX[.g.UXnXPXIXJXIXPXJXqXKXGXUXLXJX$XT.KXUXPXIXIXUXLXUX XD.PXPXLXJXSXL ",
".XHXKXKXLXLXKXPXIXG.SXJXPXUXGXm.C.LXKXLX@XJXUXGXUXDXGXKXKXPX#Xz.UXPXIXIXHXLXLXIXKXUXIXIXPXPX_.U.LXPXLXLXKXPXIXLXLXDXIXIXLXUXfXs.",
"MXPXPXKXKX+XGX7XGXLXIXIXLXPXKXD..XPXDXIXDXIXIXKXUXUXGXIXUXDX[.8.LXFXIXKXLXIXPXLXGXSXGXcX8XUX$XU.PXIXIX1XPXIXtXAXUX6XLXLXPXUXFXo.",
"-XIX>XLXJXFXLXPXAXLXPX`.NXIXKX(._.IXUXPXHXIXPXPXPXFXPXIX0XLX`.l.UXLXKXLXJXLXHXPXPXJXKXPXUXcX}.I.IXCXKXUXKXLXLXPXUXIXPXUXCXIXVXa.",
"3XLXKXKXKXDXHXPXPXHXLXJX>XIXKXq.oXCXPXIXLXPXIXUXHXLXPXPXPXdX_.g.LXhXIXLXHXLXSXLXLXUXKXVXKXKXOXL.SXIXIXIXZXLX[.UXIXKXJXUXUXHXCXe.",
"jXHXPXUXHXJXJXHXPXPXKXDXUXjXVX5.XXsXIXCXyXUXPXHXPXHXGXLXUXZX.Xr.5XIXIXLXHXLXPXIXPXIX+XSXIXPXD.J.LXUXPXPXGXgXUXDXUXIXIXPXPXIXBXo.",
";XLXLXPXPXPXPXPXJXwXUXPXPXE.jX+.T.PXUXIXpXXXIXnXUXUXHXaXBXPXf.6.PXPXPXLXLXPXIXuXUX+XIXKXPXSXV.K.GXIXIXHXyXPXKXLXPXLXIXUXHXzXbX0.",
"pXdX5XuXuXpXzXeXzXmXcXbXBXVXVXs.<XY.xXdXkXzXzXbXcXVXfXnXjXfX~.>.iXuXqXiXfXaXdXsXtXzXlXcXbXvXR.!.iXtX$X-XXX5XVXhXtXkXkX:X2XMX6X&.",
"l.R.XXOX;X:X6X5X4X5X9X6X7X0X7XI %X:X=X=X:X:X0X7XI.5X*X5X3X2XXXR g.Z.P./.#XQ.XX X.X$X+XXX&X-X:XF.`.oX.XOX@X@X,X1X=XOX-X-X1X:X,Xd.",
"~./.!.Q.~.+XZ.`._._.!.(.(.^.(.Q.'._.)./.~.!.j.n.P.W.].[.{.`.'.`.!.E.W.H.^.XXT _.'.oX=XJ.XX|.oX+X].oX$X=X,X.XB././.F.E.W.^.~.^._.",
"2XLX;XLXPXSXG.7XIXPXIXLXPXPXIXUXUXIXIXIXLXPXw.=XIXIXLXi.LXLXVXPXPXUXJXPXIXxXp }.UXIXUXPX%XPXjXGXIXIXPXUXlXIXU.R.LXJXNXPXIXJXHXKX",
"KX4XFXjXUXPXP.sXPXIXPXPXjXSXUXIXUXUXPXPXIXPXN.).IXKXPXIXzXPXPXPXIXLXIXUXlXVXu !.PXUXPXIXPXPXIXPXIXPXIXPXUXJXP.j.IXmXPXIXZXLXIXHX",
"IXHXPXIXLX;XP.C.LXpXIXUXFXIXSXGXLXwXLXUXJXDXV.K.PXUXPXUXHXLXPXSXPXPXLXLXUXLXX.Y.IXSXLXLXJXHXLXDXLXIXAXKXbXLXI.l.PXgXIXMXLXKXUXnX",
"PXLXPXLXUXIXH.:XLXPXUXPXPXUXPXIXIXBXIXZXIXKXz.R.HXGXIXPXLXLXvXIXJXPXPXPXIXJX1.'.PXPXPXLXPXHXIXFXPXIXPXUXPXCXL.k.IXFXPXPXPXIXFXPX",
"PXUXKXLXPXdXV.3XKXLXPXJXIXLXCXJXJXKXIXJXIXJX5._.LXLXIXIXUXNXPXHXKXPXFXHXHXvX' E.LXPXIXPXIXLXCXKXIXLXPXKXBXGX^._.PXIXPXKXcXKXIXIX",
"ZXUXIXIX-XMXZ.UXUXAXLXIXIXIXCXLXLXIXIXIXIXCXP.2XPXxXAXeXPXZXKXPXKXKXBXKXLXxX-.g.LXHXPXVXFXLXIXPXUXIXIXPXLXVXU.a.HXKXHXPXZXGXPXKX",
"PXUXIXKXLXLXl.aXPXBXIXKXPXIXZX7XgXzXUXIXPXKX~.lXKXVXJXIXLXjXUXIXPXJXIXIXIXFXk.pXLXKXPXJXJXHXPXIXIXHXUXKXBXPX).B.PXCXGXUXHXIXPXUX",
"PXKXFXGXhXKXM.bXIXUXUXPX8XIXUXzXIXUXAXPXPXGXZ.P.KXHXIXLXIXKXJXiXPXHXHXPXGXfXa.PXPXeXLXIXlXPXPXIXPXbXIXIXGXFX).k.HXJXSXIXMXIXHXIX",
"PX6XNXLXPXGX0.JXvXJXIXLXIXUXIXIXLXLXKXUXJXGX(.^.LXAXKXLXPXLXGXPXIXLXFXPXLXnXh.nXLXPXaXIXPXJXSXPXGXKXPXUXLXxX{.h.PXLXPXIXCXKXKXBX",
"xXFXJXPXUXGXG.dXUXIXIXLXKXFXhXLXIXiXUXDXPXKX).E.PXPXIXSXBXLXPXIXKXIXKXPXcXaXc..XPXLXKXPXPXLXGXIXDXIXIXUXPXPXD.8.FX;XKXKXLXIXHXgX",
"kXIXPXLXIXGXB.nXPXHXJXIXUXLXFXHXHXUXPXIXLXJX/.'.LXHXJXLXUXPXIXKXJXLXCXKXPXKXv.*XIXGXPXIXCXLXPXGXIXJXW.UXGXIXR.T.LXIXKXGXUXFXLXUX",
"LXLXPXHXUXPXS.pXPXKXIXDXHXIXPXPXZXKXPXKXHXIXP.T.UXJXIXPXKXGXGXPXLXDXPXUXPXAXb.K.IXLXPXPXJXKXUXqXUXUXPXHXi.1X^.#XKXUXLXKX7XlXUXFX",
"R.PXOXmXPXKXZ.UXLXLXPXZXIXKXIXMXvXIXMXLXPXIX[.I.KXPXUXLX+XLXPXPXBXsXPXIXIXLXt.dXAXGXPXLXGXHXFXLXLXPXLXL.PXGXP.OXLXPXvXPXLXHXLXLX",
"xXnXnXZXmXZX@.eXkXbXxXcXvXcXxXbXfXvXMXCXMXAXXX0XaXfXgXkXlXzXnXmXzXnXNXP.tXvX5.yXuXhX0XuXsXuXsXgXwX5XhXxXvXjXC. XqXpXpXpXqXlXxXzX",
"rX7X6X6X4X8X' 4X2XOX6X7X9XwXwXeX).0X9X3X7X9Xf. X].^.}.}.XX].+X:X&X%X].'..X X<.u.z.G.~.].XX#X;X5X<X@X>X:X1X>XS..X*X<X<X,X1X2X%X5X"
};
