/* XPM */
static const char *wall_mlx[] = {
/* columns rows colors chars-per-pixel */
"64 64 11 1 ",
"  c #626262",
". c #282828",
"X c #929292",
"o c #A9A9A9",
"O c #B7B7B7",
"+ c #D7D7D7",
"@ c #C8C8C8",
"# c #E8E8E8",
"$ c #FDFDFD",
"% c #FAFAFA",
"& c #F4F4F4",
/* pixels */
"@OOoOOOoooOoooo oooooOOOOOOOX++O@OOXOoOooooooooo@OOooOoooooooooX",
"O&$&$$$$$$$$%%%XO&$$$$$$@$$$$$%o@$$%%%%&%%&%$%%OO$$$$$$#%+$$$#$X",
"O$$%+%$$+%&$%$&XO$&&$$X%%$$$&%%oO$$$%&&%$$%%&##OO$$$$%$%&$$%$$$o",
"O$$%O$$$$$$&$$$oO%$&#$$$$#$$&$&XO%$$$$%$$%&&%$%OO$%&$&$%$%%$$%%o",
"O$$$$$$$#$&%#O$OO%%$%$$$$$%&&$&oO&&%$%%$$&&$$$%OO$$$$$%$%#&&&&$o",
"O$$+$$&$$$$%#$#oo$$$%$$$#$&$$$#OO$&%O&%&%&%%$$#OO$$$$%&$$$%&$%$o",
"o$%$+$$$$$$$$%+Oo$%&$$$$&$&#%&&oO%$&#%$%$$%$#$+OO$%$&$$$$$&$$$Xo",
"o&%$%$$$$$$%$%$Oo%@$$$$&%$$%&%%OO$%%%#$%%$&%$%#OO$O$$$$$$$%%$#$o",
"o$%%$$$&##$$$+%oo$&$$$$$$$$$&$$oO$%$$&$%%&%%$$%@O$$$$$$$$%$%%&$X",
"o@$$$$%$$$$%&$$Oo$$$$$$$+$&&%%$oO$$%%&&$%%%&%$$oO$$O$%$$$%$$$#$o",
"o+$&$$&$$$&++#$Oo$#$$$$&$$$$$$$OO$$$&&$%$$%$$$$OO$$%$$$$#%$&$#%X",
"o$$$$O$$$$%$%$$oo$#$$$%#$$$$$$$oO$$$%&$O%$%&$$$OO#%%$$$$$$%$$%$X",
"O$.X$$$#$$#&$&$oo$$%$%$$&&$$&%$oo%&$%#&%%X&%#&$oO$%$%$%&$&$%&$%X",
"O$&$$$$o&&&$$%$oo$$%$$%%@$$&%$$OO%$%%$&$%$$$+#$oO$$O$$$%%$%%$&&o",
"O++###+#&&&#&&&OO#++#+#+###+@##OO++++#####&&&##OO#+X++######&&&O",
"@@@@@+@@+@+@@@+oO@oO@@@O@@@OO@@OXooO@@@@O@O@O@OOoO@@@@@@@@@@+@@@",
"ooooO.oOOoOooooOOoooO OOooooooooOOoOO OOOooooOooOoooo OoOOoOoooO",
"%&&$+ #%$X#&$%&$%$&$XX@$@$$$&#$%#$&$o.+%$$$&$$%$$#%%%X%$%$$%O+%$",
"&$$$+ $$$$%&$&$&%%$&OX@%$%$&$%$&+$#$X +%%%%$%&&%$$%$$X$$$%$$%&$%",
"#$$$O $&$$$%%#$$$%&$O O&$$$$$$O$$$$&o $&%$$$$$$$%$%$&X$$$$$$#&%$",
"#$+%O.+$%%%%%$$$+%$$+ O%&$&$%$%%$$$$O @&%%$$%%$+$%$$#o$$$$$$$&$%",
"$#$$+.%%$#&%$%$%#%&%#XO$%%$%%$%%$#$$X +%%%%%$$$$$$%$#X$%$%&%&$$&",
"%###@ &%$%%%$$%%%$&$#XO$$%$&%%%$%%$#X $#$O%%#$$&%$%%#X%$&&%+$%#%",
"&&&$# &%&$$%#%$$$#%$&oO$&$%$$$$%&$$%X &$$%&$%%%%$%$$&X$&&&%%&&%%",
"&&%%@ %%$%$%$#%&&$%$@XO$$$$%$$$$%&%$O #$%%$&%$&$%&%%#X$$$$%$#%%%",
"$%&$@ &$%%%%$$&$%%&&+XO%%%%%$$+X&O%$o $$%$$$$&&$%%%&%X$$$$%%$$%&",
"$%O%@ %#%$$%$%%$%$%%$XO$$$$$%$%%$$#$X O$%%%&$%&&$%%+#X$$$$%$%$&$",
"$$$&+ &$&$%O$%@&%$$$@X+$%%$$%$+%$%&#@ @%%+&%%%#$#$&&% %%$&&$%%%&",
"%%%$O #$&$%%$#$&#$$&Xo@%%$&%$%%@%%%$o.$&$$%#&%&$&&%$& %&$%$$%#%%",
"&$$$o %%%&$%%&&%%$%%XOo%$%%%%&$$$o%&X +$%%#%%$%&&$%%# #$&%$$$%&o",
"####o +++++++X+&####o #+###+####&##&o ++@++++++####&# +++++++###",
"OOoOOXoooXooooO@@@@@@ @XOOO@@@++@+OXX .   XXXXOOOOOOO XoooooooOO",
"OOO@OO@X@@@+++#XOXOOoooOOOoOO@O oOOOo+O@@@@+##XXOOO@O@O@@+++##oX",
"@$&$$%$#$$$$$$$o@$%%@+%&$+$&$%o #$$#$$$$$$%&$$Xo%%$$$$$$$$%$$$+.",
"+$$$$$$%&&$$%$+o@&$%%&%$$$$$%$O.#&$%%$$$$$$$%$oo$$$#+%%$%$$$$&#X",
"&$$$%$$$$+%$$$&O@$$$%$X$$$$&$+Oo%$$$$%$O$$%$#%Oo$$$$$+$%$X$$$$& ",
"#$$#%$$$$&&$$$%OO%$$%O$%$$@#%%Oo%$$%$$$$$#$&%%Oo%$#$$%$$$$$&$$&.",
"@$%$%%$$%%%$&$$OO$$$$#o%%+%&%$@X$%$$$$&%$&%$&$oo%$$$$$%&#%$$$$& ",
"%$$&&%%%%&&@$%&XO%%#%$$#%+#%$%OX$$%$$$%$&$&#$$oo%$$$#$OX$$&$$$&.",
"$#$%$$%$&#$#%$&oo$$$$o$$$$$&#$OX$#$$%$$%+%&$%%@o%$$$$$$$OX$$$%&.",
"O%%%$$%$$X&%$$%XX$%$O%$%$&%%%$OX$$$$%$$$%$$$$$Oo$$$$%$$$$&$$$$#X",
"#$$%%O%+%$$$$$%XO$&$&$$%$$%$$&O $&$%$$$$%&%#+$@o$$$@$$+&$+$%$$% ",
"@$@$%&$$&$$O#$%oO$$$%$$$$&$$+$OX$$%$%$%$$%%$$#Oo$&%$%$$$$$%$&$&X",
"@$%%%&%$$%$%@$% O&$$$$$$%$$$$#OX$#$$%$&%$$%&%%Oo&$$$&$O$$%%$$%& ",
"#%$$%%%%%%%&$#& O+$&+$$%$%%$$&O @$$$%$$$$$O&$$XX$$$$%#$&$$$$$$& ",
"@$$$$$$$%+$$$o# o$$$+O$#$$%+&$X $$$$$$$+$O$$$&XX%$$%+$%$$$$$%## ",
"+#@+++#+####&&&X@o#######&####o ++++#+##+#####oo++@@O@&#+##@@#+ ",
"XoOO@@+@@@+++++ @@@@@@++o@@@@@O XXoo@oOOO@OO@@@XOOOOOO@@@O@@@@@X",
"oooooOXOOOooooooOOooooXXooOOOOOOoooXoO OOO@XOOOOOO@@@OXooXoooooO",
"@$@$$&X+$$$$$$$$$$$$$$ @$$$X$$#%$$%$$#.O$$$$@$#%$$$$#$oo$%#$$%%%",
"%@%#$$o+$$$$#&$$$$$$$$Xo$%$$#$$$$$$$#&.o$$$$$$$$$$$$$%oX$#$$&$$%",
"$%$$$@oX$+$$&$&%$+$$%&Xo$$$$%%$&$$$$$$ o$&$$%%$&$$&%#$oX$#$#$$$#",
"$$$$$$X@$$$$$$$$$&$&$%Xo%%$$$$#$%$$$$% O$$$$$%$&$$$$$&XX$&$$$$&$",
"$$$$$#X@%$$%$$&%%%$%$% O$$$$$#$%%$&%%# o$$$$$$&%$%$%&%oo$$$%#%$$",
"&$$$@#X$$&$$$$&$$$$$$&o@$#&+$&%$%%&%$# X$%$&&$$$$$$$$&oX%%%$&%$%",
"$$$%$$X+$&$%$$&+##$$$%o#%&%$$#$$$%$$$&X+$%$%%%$$$%$%&$oX$&%$%$$$",
"$%&%#$X#$$$$+$$#$$&$$&Xo%%$$$%%+$%%$%#X$$+$$#$$$$#$$%%OX%%&$#$%$",
"$+#$$% %#%$$$$$$$$%$%&oo$&%$$$%$$$&$$#X#$$+$$%&$%%$$$#OX$$$$&%%&",
"#&%$$%X#$$$$%&#$$+$&$%oo$$$&&$$$%$%$##XO$%%$$$%$&$$$$$X &@%%$$%#",
"#$$$$%X#$%%$$$&%%$$$%%oO$%%$$$$%%$&%$$X@$&%$&$$%$%o$%$oo$$%&$&$$",
"$$$%$$X+$%$&%$$$&%$%%$oo$%$$%%%$$&$$$&Xo$$$$%%$+$$$%X@oO%$$%+#$&",
"o$O#$%X$$$$&$%$##$#$$$Oo%$$$O$$$&+$$$$ #&%$$%%&$$$$o$%oO$$#$$%$$",
"###&#& +###########&#&O++##########o+# ++#+++++#+@####XO+++++###",
"++++@+ @@O++++++o++@++XOOoOOOOO@@@OOOO  XXoOOO@@@O@@@@XO@@@@@@@@"
};
